<?xml version="1.0" encoding="UTF-8"?>
<svg xmlns="http://www.w3.org/2000/svg" xmlns:xlink="http://www.w3.org/1999/xlink" viewBox="0 0 48 48" width="48px" height="48px">
<g id="surface58301959">
<path style=" stroke:none;fill-rule:nonzero;fill:rgb(100%,100%,100%);fill-opacity:1;" d="M 24 6 C 23.316406 6 22.632812 6.230469 22.078125 6.699219 L 6.601562 19.628906 C 6.027344 20.109375 5.824219 20.945312 6.203125 21.585938 C 6.6875 22.40625 7.761719 22.566406 8.460938 21.984375 L 23.757812 9.203125 C 23.898438 9.085938 24.101562 9.085938 24.242188 9.203125 L 39.539062 21.984375 C 39.820312 22.21875 40.160156 22.332031 40.5 22.332031 C 41.019531 22.332031 41.535156 22.0625 41.824219 21.542969 C 42.171875 20.90625 41.964844 20.101562 41.410156 19.636719 L 39 17.625 L 39 11.25 C 39 10.421875 38.328125 9.75 37.5 9.75 L 36 9.75 C 35.171875 9.75 34.5 10.421875 34.5 11.25 L 34.5 13.863281 L 25.921875 6.695312 C 25.367188 6.230469 24.683594 6 24 6 Z M 24 12 L 9 24.527344 L 9 35.25 C 9 37.320312 10.679688 39 12.75 39 L 35.25 39 C 37.320312 39 39 37.320312 39 35.25 L 39 24.527344 Z M 21 24 L 27 24 C 27.828125 24 28.5 24.671875 28.5 25.5 L 28.5 36 L 19.5 36 L 19.5 25.5 C 19.5 24.671875 20.171875 24 21 24 Z M 21 24 "/>
</g>
</svg>
